{
	"asset":{
		"generator":"Khronos glTF Blender I/O v4.4.55",
		"version":"2.0"
	},
	"scene":0,
	"scenes":[
		{
			"name":"Scene",
			"nodes":[
				0
			]
		}
	],
	"nodes":[
		{
			"mesh":0,
			"name":"Icosphere"
		}
	],
	"materials":[
		{
			"doubleSided":true,
			"emissiveFactor":[
				1,
				1,
				1
			],
			"emissiveTexture":{
				"index":0
			},
			"name":"Material.001",
			"pbrMetallicRoughness":{
				"baseColorTexture":{
					"index":1
				},
				"metallicFactor":0,
				"roughnessFactor":0.5
			}
		}
	],
	"meshes":[
		{
			"name":"Mesh",
			"primitives":[
				{
					"attributes":{
						"POSITION":0,
						"NORMAL":1,
						"TEXCOORD_0":2,
						"TANGENT":3
					},
					"indices":4,
					"material":0
				}
			]
		}
	],
	"textures":[
		{
			"sampler":0,
			"source":0
		},
		{
			"sampler":0,
			"source":1
		}
	],
	"images":[
		{
			"mimeType":"image/png",
			"name":"EmissiveTex",
			"uri":"EmissiveTex.png"
		},
		{
			"mimeType":"image/png",
			"name":"AlbedoTex",
			"uri":"AlbedoTex.png"
		}
	],
	"accessors":[
		{
			"bufferView":0,
			"componentType":5126,
			"count":18264,
			"max":[
				0.924250066280365,
				0.9303051233291626,
				0.9248635768890381
			],
			"min":[
				-0.924250066280365,
				-0.9303051233291626,
				-0.9248635768890381
			],
			"type":"VEC3"
		},
		{
			"bufferView":1,
			"componentType":5126,
			"count":18264,
			"type":"VEC3"
		},
		{
			"bufferView":2,
			"componentType":5126,
			"count":18264,
			"type":"VEC2"
		},
		{
			"bufferView":3,
			"componentType":5126,
			"count":18264,
			"type":"VEC4"
		},
		{
			"bufferView":4,
			"componentType":5123,
			"count":92160,
			"type":"SCALAR"
		}
	],
	"bufferViews":[
		{
			"buffer":0,
			"byteLength":219168,
			"byteOffset":0,
			"target":34962
		},
		{
			"buffer":0,
			"byteLength":219168,
			"byteOffset":219168,
			"target":34962
		},
		{
			"buffer":0,
			"byteLength":146112,
			"byteOffset":438336,
			"target":34962
		},
		{
			"buffer":0,
			"byteLength":292224,
			"byteOffset":584448,
			"target":34962
		},
		{
			"buffer":0,
			"byteLength":184320,
			"byteOffset":876672,
			"target":34963
		}
	],
	"samplers":[
		{
			"magFilter":9729,
			"minFilter":9987
		}
	],
	"buffers":[
		{
			"byteLength":1060992,
			"uri":"SphereTest.bin"
		}
	]
}
