{
	"asset":{
		"generator":"Khronos glTF Blender I/O v4.4.55",
		"version":"2.0"
	},
	"extensionsUsed":[
		"KHR_materials_emissive_strength"
	],
	"scene":0,
	"scenes":[
		{
			"name":"Scene",
			"nodes":[
				0,
				1,
				2
			]
		}
	],
	"nodes":[
		{
			"mesh":0,
			"name":"LanternPole_Body"
		},
		{
			"mesh":1,
			"name":"LanternPole_Chain"
		},
		{
			"mesh":2,
			"name":"LanternPole_Lantern"
		}
	],
	"materials":[
		{
			"emissiveFactor":[
				1,
				1,
				1
			],
			"emissiveTexture":{
				"index":0
			},
			"extensions":{
				"KHR_materials_emissive_strength":{
					"emissiveStrength":10
				}
			},
			"name":"LanternPost_Mat.001",
			"normalTexture":{
				"index":1
			},
			"pbrMetallicRoughness":{
				"baseColorTexture":{
					"index":2
				},
				"metallicRoughnessTexture":{
					"index":3
				}
			}
		}
	],
	"meshes":[
		{
			"name":"LanternPole_Body.001",
			"primitives":[
				{
					"attributes":{
						"POSITION":0,
						"NORMAL":1,
						"TEXCOORD_0":2,
						"TANGENT":3
					},
					"indices":4,
					"material":0
				}
			]
		},
		{
			"name":"LanternPole_Chain.001",
			"primitives":[
				{
					"attributes":{
						"POSITION":5,
						"NORMAL":6,
						"TEXCOORD_0":7,
						"TANGENT":8
					},
					"indices":9,
					"material":0
				}
			]
		},
		{
			"name":"LanternPole_Lantern.001",
			"primitives":[
				{
					"attributes":{
						"POSITION":10,
						"NORMAL":11,
						"TEXCOORD_0":12,
						"TANGENT":13
					},
					"indices":14,
					"material":0
				}
			]
		}
	],
	"textures":[
		{
			"sampler":0,
			"source":0
		},
		{
			"sampler":0,
			"source":1
		},
		{
			"sampler":0,
			"source":2
		},
		{
			"sampler":0,
			"source":3
		}
	],
	"images":[
		{
			"mimeType":"image/png",
			"name":"Lantern_emissive",
			"uri":"Lantern_emissive.png"
		},
		{
			"mimeType":"image/png",
			"name":"Lantern_normal",
			"uri":"Lantern_normal.png"
		},
		{
			"mimeType":"image/png",
			"name":"Lantern_baseColor",
			"uri":"Lantern_baseColor.png"
		},
		{
			"mimeType":"image/png",
			"name":"Lantern_roughnessMetallic",
			"uri":"Lantern_roughnessMetallic.png"
		}
	],
	"accessors":[
		{
			"bufferView":0,
			"componentType":5126,
			"count":941,
			"max":[
				11.568753242492676,
				25.848140716552734,
				2.3157098293304443
			],
			"min":[
				-3.922445058822632,
				0.18392086029052734,
				-2.3157098293304443
			],
			"type":"VEC3"
		},
		{
			"bufferView":1,
			"componentType":5126,
			"count":941,
			"type":"VEC3"
		},
		{
			"bufferView":2,
			"componentType":5126,
			"count":941,
			"type":"VEC2"
		},
		{
			"bufferView":3,
			"componentType":5126,
			"count":941,
			"type":"VEC4"
		},
		{
			"bufferView":4,
			"componentType":5123,
			"count":2616,
			"type":"SCALAR"
		},
		{
			"bufferView":5,
			"componentType":5126,
			"count":756,
			"max":[
				9.71120834350586,
				21.690223693847656,
				0.12920807301998138
			],
			"min":[
				9.45279312133789,
				20.385520935058594,
				-0.12920807301998138
			],
			"type":"VEC3"
		},
		{
			"bufferView":6,
			"componentType":5126,
			"count":756,
			"type":"VEC3"
		},
		{
			"bufferView":7,
			"componentType":5126,
			"count":756,
			"type":"VEC2"
		},
		{
			"bufferView":8,
			"componentType":5126,
			"count":756,
			"type":"VEC4"
		},
		{
			"bufferView":9,
			"componentType":5123,
			"count":3744,
			"type":"SCALAR"
		},
		{
			"bufferView":10,
			"componentType":5126,
			"count":2550,
			"max":[
				10.616089820861816,
				20.538433074951172,
				1.034084677696228
			],
			"min":[
				8.547924995422363,
				15.479870796203613,
				-1.034084677696228
			],
			"type":"VEC3"
		},
		{
			"bufferView":11,
			"componentType":5126,
			"count":2550,
			"type":"VEC3"
		},
		{
			"bufferView":12,
			"componentType":5126,
			"count":2550,
			"type":"VEC2"
		},
		{
			"bufferView":13,
			"componentType":5126,
			"count":2550,
			"type":"VEC4"
		},
		{
			"bufferView":14,
			"componentType":5123,
			"count":9822,
			"type":"SCALAR"
		}
	],
	"bufferViews":[
		{
			"buffer":0,
			"byteLength":11292,
			"byteOffset":0,
			"target":34962
		},
		{
			"buffer":0,
			"byteLength":11292,
			"byteOffset":11292,
			"target":34962
		},
		{
			"buffer":0,
			"byteLength":7528,
			"byteOffset":22584,
			"target":34962
		},
		{
			"buffer":0,
			"byteLength":15056,
			"byteOffset":30112,
			"target":34962
		},
		{
			"buffer":0,
			"byteLength":5232,
			"byteOffset":45168,
			"target":34963
		},
		{
			"buffer":0,
			"byteLength":9072,
			"byteOffset":50400,
			"target":34962
		},
		{
			"buffer":0,
			"byteLength":9072,
			"byteOffset":59472,
			"target":34962
		},
		{
			"buffer":0,
			"byteLength":6048,
			"byteOffset":68544,
			"target":34962
		},
		{
			"buffer":0,
			"byteLength":12096,
			"byteOffset":74592,
			"target":34962
		},
		{
			"buffer":0,
			"byteLength":7488,
			"byteOffset":86688,
			"target":34963
		},
		{
			"buffer":0,
			"byteLength":30600,
			"byteOffset":94176,
			"target":34962
		},
		{
			"buffer":0,
			"byteLength":30600,
			"byteOffset":124776,
			"target":34962
		},
		{
			"buffer":0,
			"byteLength":20400,
			"byteOffset":155376,
			"target":34962
		},
		{
			"buffer":0,
			"byteLength":40800,
			"byteOffset":175776,
			"target":34962
		},
		{
			"buffer":0,
			"byteLength":19644,
			"byteOffset":216576,
			"target":34963
		}
	],
	"samplers":[
		{
			"magFilter":9729,
			"minFilter":9987
		}
	],
	"buffers":[
		{
			"byteLength":236220,
			"uri":"Lantern.bin"
		}
	]
}
